# AST/ASF file generated using VICON BodyLanguage
# -----------------------------------------------
:version 1.10
:name VICON
:units
  mass 1.0
  length 0.45
  angle deg
:documentation
   .ast/.asf automatically generated from VICON data using
   VICON BodyBuilder and BodyLanguage model FoxedUp or BRILLIANT.MOD
:root
   order TX TY TZ RX RY RZ
   axis XYZ
   position 0 0 0  
   orientation 0 0 0 
:bonedata
  begin
     id 1 
     name lhipjoint
     direction 0.606768 -0.715223 0.346827 
     length 2.41543 
     axis 0 0 0  XYZ
  end
  begin
     id 2 
     name lfemur
     direction 0.34202 -0.939693 0  
     length 7.2778  
     axis 0 0 20  XYZ
    dof rx ry rz
    limits (-160.0 20.0)
           (-70.0 70.0)
           (-60.0 70.0)
  end
  begin
     id 3 
     name ltibia
     direction 0.34202 -0.939693 0   
     length 7.61811   
     axis 0 0 20   XYZ
    dof rx
    limits (-10.0 170.0)
  end
  begin
     id 4 
     name lfoot
     direction 0.0823924 -0.226371 0.97055   
     length 2.33618   
     axis -90 7.62852e-016 20   XYZ
    dof rx rz
    limits (-45.0 90.0)
           (-70.0 20.0)
  end
  begin
     id 5 
     name ltoes
     direction 1.53554e-011 -4.21934e-011 1   
     length 1.17015   
     axis -90 7.62852e-016 20   XYZ
    dof rx
    limits (-90.0 20.0)
  end
  begin
     id 6 
     name rhipjoint
     direction -0.6077 -0.714582 0.346516   
     length 2.4176  
     axis 0 0 0  XYZ 
  end
  begin
     id 7 
     name rfemur
     direction -0.34202 -0.939693 0   
     length 7.28127   
     axis 0 0 -20   XYZ
    dof rx ry rz
    limits (-160.0 20.0)
           (-70.0 70.0)
           (-70.0 60.0)
  end
  begin
     id 8 
     name rtibia
     direction -0.34202 -0.939693 0   
     length 7.77648   
     axis 0 0 -20   XYZ
    dof rx
    limits (-10.0 170.0)
 end
 begin
     id 9 
     name rfoot
     direction -0.0809463 -0.222398 0.97159   
     length 2.37533  
     axis -90 -7.62852e-016 -20   XYZ
    dof rx rz
    limits (-45.0 90.0)
           (-20.0 70.0)
  end
  begin
     id 10 
     name rtoes
     direction -1.53568e-011 -4.21714e-011 1   
     length 1.18972   
     axis -90 -7.62852e-016 -20   XYZ
    dof rx
    limits (-90.0 20.0)
  end
  begin
     id 11 
     name lowerback
     direction 0.010968 0.991932 -0.126297   
     length 2.21698   
     axis 0 0 0   XYZ
    dof rx ry rz
    limits (-20.0 45.0)
           (-30.0 30.0)
           (-30.0 30.0)
  end
  begin
     id 12 
     name upperback
     direction 0.0167007 0.997503 -0.0686276   
     length 2.22371   
     axis 0 0 0   XYZ
    dof rx ry rz
    limits (-20.0 45.0)
           (-30.0 30.0)
           (-30.0 30.0)
  end
  begin
     id 13 
     name thorax
     direction 0.0111721 0.999885 -0.0102878   
     length 2.25242   
     axis 0 0 0   XYZ
    dof rx ry rz
    limits (-20.0 45.0)
           (-30.0 30.0)
           (-30.0 30.0)
  end
  begin
     id 14 
     name lowerneck
     direction -0.0120265 0.990428 0.137508   
     length 1.57674   
     axis 0 0 0   XYZ
    dof rx ry rz
    limits (-20.0 45.0)
           (-30.0 30.0)
           (-30.0 30.0)
  end
  begin
     id 15 
     name upperneck
     direction 0.0175669 0.998907 0.0433089   
     length 1.5618   
     axis 0 0 0   XYZ
    dof rx ry rz
    limits (-20.0 45.0)
           (-30.0 30.0)
           (-30.0 30.0)
  end
  begin
     id 16
     name head
     direction 0.00754609 0.99997 0.00185367  
     length 1.60579  
     axis 0 0 0   XYZ
    dof rx ry rz
    limits (-20.0 45.0)
           (-30.0 30.0)
           (-30.0 30.0)
  end
  begin
     id 17 
     name lclavicle
     direction 0.885866 0.429166 -0.176231  
     length 3.44967  
     axis 0 0 0   XYZ
    dof ry rz
    limits (-20.0 10.0)
           (0.0 20.0)
  end
  begin
     id 18 
     name lhumerus
     direction 1 -4.48973e-011 -1.90255e-027   
     length 5.20607   
     axis 180 -30 -90   XYZ
    dof rx ry rz
    limits (-60.0 90.0)
           (-90.0 90.0)
           (-90.0 90.0)
  end
  begin
     id 19
     name lradius
     direction 1 -4.48956e-011 9.87925e-027   
     length 3.39961   
     axis 180 -30 -90   XYZ
    dof rx
    limits (-10.0 170.0)
  end
  begin
     id 20
     name lwrist
     direction 1 -4.48985e-011 1.73247e-026   
     length 1.6998   
     axis -9.60847e-015 90 90   XYZ
    dof ry
    limits (-180.0 0.0)
 end
  begin
     id 21 
     name lhand
     direction 1 -4.48798e-011 3.46119e-026   
     length 0.519693   
     axis -2.21073e-014 90 90   XYZ
    dof rx rz
    limits (-90.0 90.0)
           (-45.0 45.0)
  end
  begin
     id 22 
     name lfingers
     direction 1 -4.48938e-011 6.92797e-026   
     length 0.41899   
     axis -4.42155e-014 90 90   XYZ
    dof rx
    limits (0.0 90.0)
  end
  begin
     id 23
     name lthumb
     direction 0.707107 -6.34952e-011 0.707107   
     length 0.601588   
     axis -90 45 6.0103e-014   XYZ
    dof rx rz
    limits (-45.0 45.0)
           (-45.0 45.0)
  end
  begin
     id 24 
     name rclavicle
     direction -0.866736 0.456792 -0.200276   
     length 3.45032  
     axis 0 0 0   XYZ 
    dof ry rz
    limits (-10.0 20.0)
           (-20.0 0.0)
  end
  begin
     id 25 
     name rhumerus
     direction -1 -4.4897e-011 8.65094e-028  
     length 5.32214   
     axis 180 30 90   XYZ
    dof rx ry rz
    limits (-90.0 60.0)
           (-90.0 90.0)
           (-90.0 90.0)
  end
  begin
     id 26 
     name rradius
     direction -1 -4.48987e-011 1.08427e-026   
     length 3.51208   
     axis 180 30 90   XYZ
    dof rx
    limits (-10.0 170.0)
  end
  begin
     id 27 
     name rwrist
     direction -1 -4.48961e-011 1.73222e-026   
     length 1.75604   
     axis -9.60847e-015 -90 -90   XYZ
    dof ry
    limits (-180.0 0.0)
  end
  begin
     id 28
     name rhand
     direction -1 -4.48895e-011 3.46314e-026   
     length 0.586681   
     axis -2.21073e-014 -90 -90   XYZ
    dof rx rz
    limits (-90.0 90.0)
           (-45.0 45.0)
  end
  begin
     id 29
     name rfingers
     direction -1 -4.48968e-011 6.92916e-026   
     length 0.472997   
     axis -4.42155e-014 -90 -90   XYZ
    dof rx
    limits (0.0 90.0)
  end
  begin
     id 30
     name rthumb
     direction -0.707107 -6.34848e-011 0.707107   
     length 0.679133   
     axis -90 -45 -6.0103e-014   XYZ
    dof rx rz
    limits (-45.0 45.0)
           (-45.0 45.0)
  end
:hierarchy
  begin
    root lhipjoint rhipjoint lowerback
    lhipjoint lfemur
    lfemur ltibia
    ltibia lfoot
    lfoot ltoes
    rhipjoint rfemur
    rfemur rtibia
    rtibia rfoot
    rfoot rtoes
    lowerback upperback
    upperback thorax
    thorax lowerneck lclavicle rclavicle
    lowerneck upperneck
    upperneck head
    lclavicle lhumerus
    lhumerus lradius
    lradius lwrist
    lwrist lhand lthumb
    lhand lfingers
    rclavicle rhumerus
    rhumerus rradius
    rradius rwrist
    rwrist rhand rthumb
    rhand rfingers
  end

#!OML:ASF H:\Dans Jumps\Project 1\Capture day 1\Session 1\subject.ASF
:FULLY-SPECIFIED
:DEGREES
48
root 0.35686 17.5713 -13.7371 5.32712 -3.07786 -1.49183
lowerback -4.91681 -1.33086 -0.574423
upperback 1.62947 -1.79479 1.30872
thorax 4.50244 -0.926464 1.51805
lowerneck -9.59754 -7.70427 -5.54963
upperneck 8.71312 -10.1178 4.87781
head 4.70778 -4.88111 1.65973
rclavicle 1.29955e-014 6.26172e-015
rhumerus -32.1595 -29.4064 -73.3349
rradius 21.0361
rwrist 43.8306
rhand -21.7688 -27.801
rfingers 7.12502
rthumb 4.63198 -57.7303
lclavicle 1.29955e-014 6.26172e-015
lhumerus -32.5068 32.9295 69.4414
lradius 11.0314
lwrist -28.7392
lhand -28.6859 -4.64619
lfingers 7.12502
lthumb -2.04831 25.3237
rfemur -9.32232 -1.66451 18.9636
rtibia 17.8867
rfoot -13.307 -1.25165
rtoes 11.3758
lfemur -6.96067 7.36241 -17.401
ltibia 14.902
lfoot -10.8677 5.52504
ltoes 0.0274643
49
root 0.360956 17.5729 -13.7284 5.35374 -3.12562 -1.49364
lowerback -5.04929 -1.33163 -0.585403
upperback 1.57368 -1.79503 1.31749
thorax 4.52015 -0.926714 1.53092
lowerneck -9.63717 -7.67348 -5.52507
upperneck 8.82297 -10.0791 4.84647
head 4.74331 -4.86161 1.64618
rclavicle -1.1865e-014 2.0773e-014
rhumerus -32.307 -29.9355 -72.8523
rradius 20.856
rwrist 44.4802
rhand -21.8608 -27.7799
rfingers 7.12502
rthumb 4.54317 -57.7112
lclavicle -1.1865e-014 2.0773e-014
lhumerus -32.5628 33.1132 69.0843
lradius 11.0982
lwrist -28.8424
lhand -28.7921 -4.70482
lfingers 7.12502
lthumb -2.15095 25.2641
rfemur -9.26869 -1.64715 18.9425
rtibia 17.7775
rfoot -13.2908 -1.21358
rtoes 11.4637
lfemur -6.89335 7.37175 -17.4149
ltibia 14.7949
lfoot -10.8563 5.54169
ltoes 0.102439
50
root 0.36486 17.5745 -13.72 5.38765 -3.17141 -1.50025
lowerback -5.18048 -1.33222 -0.592794
upperback 1.51056 -1.79529 1.32923
thorax 4.52947 -0.92685 1.54498
lowerneck -9.67635 -7.63791 -5.50076
upperneck 8.94384 -10.0338 4.81032
head 4.78165 -4.83914 1.63159
rclavicle -2.24875e-015 6.95746e-016
rhumerus -32.4607 -30.4578 -72.3543
rradius 20.6971
rwrist 45.1338
rhand -21.9878 -27.7272
rfingers 7.12502
rthumb 4.42057 -57.6611
lclavicle -2.24875e-015 6.95746e-016
lhumerus -32.5581 33.1717 68.8151
lradius 11.1714
lwrist -28.7194
lhand -28.8651 -4.71986
lfingers 7.12502
lthumb -2.22144 25.2483
rfemur -9.2228 -1.63049 18.9277
rtibia 17.6677
rfoot -13.2749 -1.17581
rtoes 11.5535
lfemur -6.84077 7.38912 -17.4236
ltibia 14.6973
lfoot -10.8485 5.5494
ltoes 0.175529
51
root 0.368598 17.5761 -13.7118 5.42605 -3.21743 -1.51189
lowerback -5.31049 -1.33144 -0.594614
upperback 1.44402 -1.79415 1.34277
thorax 4.53437 -0.926121 1.55798
lowerneck -9.72125 -7.5981 -5.47327
upperneck 9.07533 -9.98265 4.76767
head 4.82346 -4.81389 1.61465
rclavicle 1.43498e-014 1.75924e-014
rhumerus -32.6104 -30.9585 -71.8575
rradius 20.5656
rwrist 45.7623
rhand -22.1486 -27.6662
rfingers 7.12502
rthumb 4.26529 -57.6032
lclavicle 1.43498e-014 1.75924e-014
lhumerus -32.5 33.1614 68.6035
lradius 11.242
lwrist -28.4336
lhand -28.9079 -4.67768
lfingers 7.12502
lthumb -2.26276 25.2901
rfemur -9.18326 -1.61074 18.9193
rtibia 17.5595
rfoot -13.2583 -1.14122
rtoes 11.6373
lfemur -6.8002 7.41384 -17.4264
ltibia 14.6102
lfoot -10.8442 5.55046
ltoes 0.242361
52
root 0.372202 17.5776 -13.7043 5.46798 -3.26017 -1.52458
lowerback -5.43783 -1.33006 -0.593494
upperback 1.37813 -1.79242 1.35624
thorax 4.53831 -0.925012 1.56938
lowerneck -9.77655 -7.55522 -5.44427
upperneck 9.21381 -9.92698 4.72253
head 4.86878 -4.78633 1.59663
rclavicle -1.30328e-014 -5.06901e-015
rhumerus -32.738 -31.4107 -71.3894
rradius 20.4714
rwrist 46.3153
rhand -22.3191 -27.6652
rfingers 7.12502
rthumb 4.10066 -57.6055
lclavicle -1.30328e-014 -5.06901e-015
lhumerus -32.3879 33.0925 68.4487
lradius 11.3203
lwrist -28.0062
lhand -28.9485 -4.64881
lfingers 7.12502
lthumb -2.302 25.3185
rfemur -9.15234 -1.59015 18.9133
rtibia 17.4567
rfoot -13.2403 -1.11137
rtoes 11.7241
lfemur -6.7718 7.44223 -17.428
ltibia 14.5312
lfoot -10.8397 5.54569
ltoes 0.295288
53
root 0.375714 17.579 -13.6973 5.51214 -3.30217 -1.54254
lowerback -5.56275 -1.32592 -0.585428
upperback 1.31539 -1.7876 1.37108
thorax 4.54385 -0.922226 1.57862
lowerneck -9.84425 -7.5099 -5.41629
upperneck 9.35705 -9.86741 4.67748
head 4.91757 -4.75667 1.5786
rclavicle 2.53575e-014 -4.1546e-014
rhumerus -32.8318 -31.7772 -70.9726
rradius 20.4229
rwrist 46.737
rhand -22.4866 -27.7411
rfingers 7.12502
rthumb 3.93888 -57.6845
lclavicle 2.53575e-014 -4.1546e-014
lhumerus -32.2318 32.9971 68.3331
lradius 11.4052
lwrist -27.5042
lhand -28.9867 -4.64922
lfingers 7.12502
lthumb -2.33883 25.3177
rfemur -9.1298 -1.56527 18.9141
rtibia 17.3619
rfoot -13.2218 -1.08638
rtoes 11.8121
lfemur -6.7523 7.46882 -17.4239
ltibia 14.4593
lfoot -10.8333 5.54248
ltoes 0.338946
54
root 0.379244 17.5804 -13.6909 5.55498 -3.34288 -1.55715
lowerback -5.68337 -1.31944 -0.57665
upperback 1.25669 -1.77963 1.38257
thorax 4.55091 -0.917838 1.58438
lowerneck -9.92126 -7.46206 -5.38583
upperneck 9.50245 -9.80462 4.6344
head 4.96847 -4.72509 1.56074
rclavicle 1.14798e-014 9.83984e-015
rhumerus -32.8894 -32.0412 -70.6215
rradius 20.4253
rwrist 46.9999
rhand -22.6518 -27.8949
rfingers 7.12502
rthumb 3.77934 -57.8412
lclavicle 1.14798e-014 9.83984e-015
lhumerus -32.0377 32.8775 68.2472
lradius 11.4981
lwrist -26.9731
lhand -29.0179 -4.6602
lfingers 7.12502
lthumb -2.36896 25.3064
rfemur -9.11407 -1.54653 18.9115
rtibia 17.2778
rfoot -13.2044 -1.05812
rtoes 11.8974
lfemur -6.73659 7.48949 -17.4238
ltibia 14.3925
lfoot -10.8251 5.54377
ltoes 0.371188
